HIERARCHY
ROOT Hips
{
	OFFSET 0.00000 0.00000 0.00000
	CHANNELS 6 Xposition Yposition Zposition Zrotation Yrotation Xrotation 
	JOINT LHipJoint
	{
		OFFSET 0 0 0
		CHANNELS 3 Zrotation Yrotation Xrotation
		JOINT LeftHip
		{
			OFFSET 1.53794 -1.55850 0.93568
			CHANNELS 3 Zrotation Yrotation Xrotation
			JOINT LeftKnee
			{
				OFFSET 2.28545 -6.27922 0.00000
				CHANNELS 3 Zrotation Yrotation Xrotation
				JOINT LeftAnkle
				{
					OFFSET 2.37329 -6.52057 0.00000
					CHANNELS 3 Zrotation Yrotation Xrotation
					JOINT LeftToe
					{
						OFFSET 0.14846 -0.40788 2.09160
						CHANNELS 3 Zrotation Yrotation Xrotation
						End Site
						{
							OFFSET 0.00000 -0.00000 1.07536
						}
					}
				}
			}
		}
	}
	JOINT RHipJoint
	{
		OFFSET 0 0 0
		CHANNELS 3 Zrotation Yrotation Xrotation
		JOINT RightHip
		{
			OFFSET -1.78290 -1.55850 0.93568
			CHANNELS 3 Zrotation Yrotation Xrotation
			JOINT RightKnee
			{
				OFFSET -2.24144 -6.15831 0.00000
				CHANNELS 3 Zrotation Yrotation Xrotation
				JOINT RightAnkle
				{
					OFFSET -2.35091 -6.45907 0.00000
					CHANNELS 3 Zrotation Yrotation Xrotation
					JOINT RightToe
					{
						OFFSET -0.14428 -0.39641 2.07944
						CHANNELS 3 Zrotation Yrotation Xrotation
						End Site
						{
							OFFSET -0.00000 -0.00000 1.06864
						}
					}
				}
			}
		}
	}
	JOINT lowerback
	{
		OFFSET 0 0 0
		CHANNELS 3 Zrotation Yrotation Xrotation
		JOINT Chest
		{
			OFFSET -0.08841 2.11430 -0.15818
			CHANNELS 3 Zrotation Yrotation Xrotation
			JOINT Chest2
			{
				OFFSET -0.00033 2.12605 -0.08097
				CHANNELS 3 Zrotation Yrotation Xrotation
				JOINT lowerneck
				{
					OFFSET 0 0 0
					CHANNELS 3 Zrotation Yrotation Xrotation
					JOINT Neck
					{
						OFFSET 0.04431 1.59447 0.43193
						CHANNELS 3 Zrotation Yrotation Xrotation
						JOINT Head
						{
							OFFSET 0.00455 1.62017 -0.58852
							CHANNELS 3 Zrotation Yrotation Xrotation
							End Site
							{
								OFFSET -0.00920 1.72955 -0.25850
							}
						}
					}
				}
				JOINT LeftCollar
				{
					OFFSET 0 0 0
					CHANNELS 3 Zrotation Yrotation Xrotation
					JOINT LeftShoulder
					{
						OFFSET 2.86490 1.49927 -0.33774
CHANNELS 3 Zrotation Xrotation Yrotation
						JOINT LeftElbow
						{
OFFSET 0 -4.874080 0.000000
CHANNELS 3 Zrotation Xrotation Yrotation
							JOINT LeftWrist
							{
OFFSET 0 -2.767290 0.000000
CHANNELS 3 Zrotation Xrotation Yrotation
								JOINT lhand
								{
									OFFSET 0 0 0
CHANNELS 3 Zrotation Xrotation Yrotation
									JOINT LFingers
									{
OFFSET 0 -0.989220 0.000000
CHANNELS 3 Zrotation Xrotation Yrotation
										End Site
										{
OFFSET 0 -0.797530 0.000000
										}
									}
								}
								JOINT LThumb
								{
OFFSET 0 0.000000 0.000000
CHANNELS 3 Zrotation Xrotation Yrotation
									End Site
									{
OFFSET 0 -0.809720 0.809720
									}
								}
							}
						}
					}
				}
				JOINT RightCollar
				{
					OFFSET 0 0 0
					CHANNELS 3 Zrotation Yrotation Xrotation
					JOINT RightShoulder
					{
						OFFSET -2.94414 1.45463 -0.25291
CHANNELS 3 Zrotation Xrotation Yrotation
						JOINT RightElbow
						{
OFFSET 0 -4.714040 0.000000
CHANNELS 3 Zrotation Xrotation Yrotation
							JOINT RightWrist
							{
OFFSET 0 -2.834680 0.000000
CHANNELS 3 Zrotation Xrotation Yrotation
								JOINT rhand
								{
									OFFSET 0 0 0
CHANNELS 3 Zrotation Xrotation Yrotation
									JOINT RFingers
									{
OFFSET 0 -0.868200 0.000000
CHANNELS 3 Zrotation Xrotation Yrotation
										End Site
										{
OFFSET 0 -0.699960 0.000000
										}
									}
								}
								JOINT RThumb
								{
OFFSET 0 0.000000 0.000000
CHANNELS 3 Zrotation Xrotation Yrotation
									End Site
									{
OFFSET 0 -0.710650 0.710650
									}
								}
							}
						}
					}
				}
			}
		}
	}
}
MOTION
Frames: 11
Frame Time: .0083333
15.9909 15.7027 25.0012 179.3260 2.9599 -171.6920 0.0000 0.0000 0.0000 -20.9084 -15.9407 -27.8838 4.0596 12.2392 36.5837 -0.5745 13.6395 -1.7451 0.0223 -0.9637 -2.6489 0.0000 0.0000 0.0000 21.8041 -1.0884 1.2943 -8.4219 -16.4210 54.0686 -0.1713 -22.2876 16.9495 -0.5323 4.6752 -12.9845 -3.1030 3.2477 -2.3500 -2.9792 4.5695 -0.0959 -1.1689 2.3224 1.2209 1.7701 -0.6174 -34.7549 2.1079 -5.2728 38.9230 -0.9014 -1.8905 21.8779 -0.0000 -0.0000 0.0000 20.9291 27.5893 -58.2762 119.4517 -56.4543 85.2023 12.5606 18.2845 -4.2761 0.0 0.0 0.0 -7.1250 0.0 0.0 -11.5532 34.1812 -3.1204 -0.0000 -0.0000 0.0000 -7.5153 20.3642 50.0521 -96.7857 -59.8253 -65.8732 -11.0321 8.8378 -0.3651 0.0 0.0 0.0 7.1250 0.0 -0.0 12.1301 29.4994 4.6797
15.9807 15.6179 24.6830 178.7110 2.8201 -172.2450 0.0000 0.0000 0.0000 -22.1546 -15.8413 -26.5099 4.3342 12.5923 37.8609 -0.6908 14.5972 -3.9632 0.0194 -0.8997 -2.4728 0.0000 0.0000 0.0000 20.7432 -1.1943 -0.2014 -9.4707 -17.1012 57.7040 -0.0488 -21.4456 15.4800 -0.6974 5.3382 -14.8758 -3.7548 2.8750 -1.9601 -2.9644 4.0975 0.3657 -0.8150 2.0806 1.4319 1.8703 -0.3476 -34.8798 2.0326 -4.7523 38.5906 -0.8001 -1.6803 21.6687 -0.0000 -0.0000 0.0000 19.5842 25.8999 -57.6736 117.9332 -56.836 83.9339 12.9996 17.9951 -4.3828 0.0 0.0 0.0 -7.1250 0.0 0.0 -11.2138 34.307 -2.9907 -0.0000 -0.0000 0.0000 -7.208 20.3316 48.7442 -93.5299 -59.9529 -63.0565 -10.9109 8.9638 -0.1146 0.0 0.0 0.0 7.1250 0.0 -0.0 12.2542 29.7471 4.6555
15.9767 15.5374 24.3768 177.8700 2.8041 -172.7520 0.0000 0.0000 0.0000 -23.6248 -15.5073 -24.9100 4.4492 12.7353 38.3854 -0.7637 15.2574 -5.5200 0.0246 -1.0115 -2.7805 0.0000 0.0000 0.0000 19.4448 -1.1350 -1.8476 -10.5841 -17.7255 61.4232 -0.0054 -20.5674 14.5237 -0.8363 5.8338 -16.3029 -4.6679 2.6023 -1.3851 -3.1477 3.7454 0.3379 -0.5394 1.9168 1.0418 1.5667 -0.3126 -34.1779 2.3244 -4.6686 38.4774 -0.5708 -1.6880 21.4253 -0.0000 0.0000 0.0000 18.7651 24.9009 -57.6681 116.3109 -57.2154 82.5729 13.4882 17.9669 -4.3897 0.0 0.0 0.0 -7.1250 0.0 0.0 -10.8184 34.335 -2.8745 -0.0000 0.0000 0.0000 -6.478 21.597 47.2337 -91.0463 -59.9959 -60.9061 -10.8548 9.1024 0.8084 0.0 0.0 0.0 7.1250 0.0 -0.0 12.4155 30.6643 4.4406
15.9836 15.4879 24.0789 176.5970 3.1603 -173.1920 0.0000 0.0000 0.0000 -25.5034 -14.5700 -23.5892 4.5529 12.8619 38.8536 -0.8205 15.8126 -6.7144 0.0366 -1.2349 -3.3953 0.0000 0.0000 0.0000 17.7079 -0.6238 -3.8438 -11.6823 -18.2531 64.9783 0.1365 -19.9885 12.9073 -0.8349 5.8288 -16.2884 -6.1524 2.4086 -0.9151 -3.4806 3.5536 0.6518 -0.0798 1.8319 1.0443 2.0045 -0.0180 -34.5792 2.2642 -4.3913 38.3269 -0.5959 -1.5045 21.4159 -0.0000 -0.0000 0.0000 17.8339 22.8391 -57.5742 114.2952 -57.6478 80.8741 13.8654 18.1507 -5.1092 0.0 0.0 0.0 -7.1250 0.0 0.0 -10.6181 35.079 -2.6246 -0.0000 -0.0000 0.0000 -5.6033 22.0023 45.4545 -87.6346 -59.9788 -57.9517 -11.8761 9.8695 1.1659 0.0 0.0 0.0 7.1250 0.0 -0.0 11.6632 31.043 4.0528
15.9845 15.4224 23.7838 175.6770 3.3503 -173.5610 0.0000 0.0000 0.0000 -26.9701 -13.8406 -22.2656 4.6333 12.9585 39.2134 -0.8763 16.3818 -7.8556 0.0483 -1.4180 -3.8998 0.0000 0.0000 0.0000 16.3183 -0.2390 -5.7977 -12.7655 -18.6959 68.3957 0.2485 -19.4031 11.4170 -0.9110 6.0818 -17.0220 -7.2218 2.1964 -0.5354 -3.6909 3.3100 0.8604 0.2776 1.7192 1.0161 2.0749 0.1430 -34.5901 2.3867 -4.2030 38.1599 -0.4883 -1.4021 21.3102 0.0000 -0.0000 0.0000 16.9871 21.0617 -57.5468 112.4895 -57.9999 79.3457 14.2172 18.3352 -5.5773 0.0 0.0 0.0 -7.1250 0.0 0.0 -10.4009 35.5703 -2.443 0.0000 -0.0000 0.0000 -4.9342 22.6676 43.8128 -84.9363 -59.9029 -55.6161 -12.4472 10.1504 1.7127 0.0 0.0 0.0 7.1250 0.0 -0.0 11.2838 31.6047 3.7611
15.9854 15.3662 23.4945 174.9060 3.5834 -173.8010 0.0000 0.0000 0.0000 -28.2138 -13.0463 -21.0779 4.6815 13.0159 39.4282 -0.9221 16.8600 -8.7520 0.0646 -1.6403 -4.5126 0.0000 0.0000 0.0000 15.1074 0.2943 -7.9373 -13.7985 -19.0518 71.5882 0.3737 -18.9780 9.7941 -0.9563 6.2271 -17.4449 -8.1392 2.0084 -0.2732 -3.8756 3.0990 1.0362 0.5830 1.6211 1.0324 2.1147 0.2816 -34.6145 2.5514 -4.0597 38.0111 -0.3674 -1.3147 21.2241 -0.0000 0.0000 0.0000 16.2134 19.241 -57.587 110.7869 -58.3027 77.8994 14.4786 18.6293 -6.099 0.0 0.0 0.0 -7.1250 0.0 0.0 -10.2661 36.1131 -2.2726 -0.0000 0.0000 0.0000 -4.3044 23.417 42.2119 -82.5518 -59.7893 -53.5542 -13.1936 10.0526 2.0869 0.0 0.0 0.0 7.1250 0.0 -0.0 10.7406 32.0008 3.47
15.9850 15.3211 23.2093 174.3660 3.7969 -173.8900 0.0000 0.0000 0.0000 -29.1383 -12.3133 -20.1011 4.7472 13.0933 39.7188 -0.9619 17.2843 -9.5474 0.0860 -1.8914 -5.2057 0.0000 0.0000 0.0000 14.1807 0.9267 -10.2582 -14.7491 -19.3257 74.4796 0.5072 -18.7286 8.0737 -0.9695 6.2686 -17.5658 -8.8063 1.8133 -0.1512 -3.9950 2.8769 1.1912 0.8238 1.5120 1.1202 2.1559 0.4301 -34.6696 2.7075 -3.9012 37.8785 -0.2477 -1.2217 21.1567 0.0000 -0.0000 0.0000 15.4696 17.4157 -57.6232 109.3410 -58.5383 76.6676 14.6022 18.9091 -6.5718 0.0 0.0 0.0 -7.1250 0.0 0.0 -10.2389 36.5999 -2.1429 0.0000 -0.0000 0.0000 -3.7824 24.2139 40.713 -80.5054 -59.6566 -51.7869 -14.0202 9.4242 2.0555 0.0 0.0 0.0 7.1250 0.0 -0.0 10.0803 31.9912 3.2529
15.9828 15.2880 22.9270 174.0740 3.9650 -173.8380 0.0000 0.0000 0.0000 -29.7465 -11.6765 -19.2358 4.8018 13.1570 39.9592 -0.9915 17.6160 -10.2011 0.1125 -2.1628 -5.9559 0.0000 0.0000 0.0000 13.5599 1.6314 -12.7196 -15.5933 -19.5279 77.0175 0.6412 -18.6465 6.3268 -0.9603 6.2399 -17.4822 -9.2003 1.5936 -0.1468 -4.0382 2.6147 1.3074 0.9970 1.3774 1.2476 2.1756 0.5863 -34.7029 2.8459 -3.7134 37.7629 -0.1265 -1.1254 21.0937 0.0000 0.0000 0.0000 14.7484 15.6867 -57.6241 108.2227 -58.7073 75.7128 14.6478 19.1728 -6.873 0.0 0.0 0.0 -7.1250 0.0 0.0 -10.2500 36.9084 -2.0669 0.0000 0.0000 0.0000 -3.4077 25.122 39.4139 -78.9561 -59.5341 -50.4507 -14.8076 8.116 1.6978 0.0 0.0 0.0 7.1250 0.0 -0.0 9.4137 31.647 3.1115
15.9792 15.2677 22.6461 173.9770 4.0801 -173.6630 0.0000 0.0000 0.0000 -30.1058 -11.1545 -18.4322 4.8395 13.2007 40.1244 -1.0101 17.8460 -10.7217 0.1447 -2.4514 -6.7548 0.0000 0.0000 0.0000 13.1767 2.3811 -15.2925 -16.3163 -19.6715 79.1726 0.7680 -18.6942 4.6240 -0.9300 6.1432 -17.2005 -9.3749 1.3357 -0.2285 -4.0179 2.2936 1.3870 1.1168 1.2094 1.3976 2.2793 0.7987 -34.7442 2.8815 -3.4432 37.6696 -0.0504 -1.0014 21.0402 0.0000 -0.0000 0.0000 14.0497 14.0915 -57.5533 107.5022 -58.8103 75.0968 14.6307 19.3765 -6.9727 0.0 0.0 0.0 -7.1250 0.0 0.0 -10.2806 37.0086 -2.0477 0.0000 -0.0000 0.0000 -3.1894 26.105 38.3057 -77.8449 -59.4343 -49.4934 -15.4466 6.4248 0.9409 0.0 0.0 0.0 7.1250 0.0 -0.0 8.8292 30.8859 3.0772
15.9753 15.2595 22.3659 173.9890 4.1006 -173.4390 0.0000 0.0000 0.0000 -30.3244 -10.7478 -17.5812 4.8503 13.2133 40.1721 -1.0182 17.9724 -11.0764 0.1837 -2.7603 -7.6122 0.0000 0.0000 0.0000 12.9334 3.0913 -17.8877 -16.9075 -19.7691 80.9245 0.8825 -18.8322 3.0329 -0.9049 6.0621 -16.9648 -9.4265 1.0244 -0.3116 -3.9454 1.8882 1.4399 1.2203 0.9978 1.5310 2.4057 1.0519 -34.7721 2.8497 -3.1053 37.6337 0.0042 -0.8618 21.0174 0.0000 -0.0000 0.0000 13.3741 12.6636 -57.4089 107.1576 -58.8579 74.8019 14.6127 19.6041 -6.8221 0.0 0.0 0.0 -7.1250 0.0 0.0 -10.2708 36.8546 -2.0849 0.0000 -0.0000 0.0000 -3.1474 27.1689 37.4106 -77.2265 -59.3744 -48.9611 -15.8564 4.5932 0.0014 0.0 0.0 0.0 7.1250 0.0 -0.0 8.4199 29.9271 3.1269
15.9714 15.2622 22.0864 174.0210 4.0347 -173.2190 0.0000 0.0000 0.0000 -30.5120 -10.4218 -16.6181 4.8254 13.1844 40.0628 -1.0163 17.9891 -11.2352 0.2279 -3.0729 -8.4818 0.0000 0.0000 0.0000 12.7197 3.7393 -20.4370 -17.3649 -19.8327 82.2747 0.9859 -19.0174 1.5089 -0.8997 6.0450 -16.9151 -9.4441 0.6626 -0.3541 -3.8472 1.4050 1.4799 1.3276 0.7477 1.6367 3.7564 -0.2328 -34.7731 1.7981 -1.8624 37.7285 0.0026 0.7665 20.9971 -0.0000 0.0000 0.0000 12.7435 11.3855 -57.221 107.1660 -58.8568 74.8091 14.6203 19.8665 -6.5 0.0 0.0 0.0 -7.1250 0.0 0.0 -10.2123 36.5281 -2.1554 -0.0000 0.0000 0.0000 -3.269 28.2753 36.7004 -77.0291 -59.3546 -48.7912 -15.9977 2.9808 -0.9586 0.0 0.0 0.0 7.1250 0.0 -0.0 8.2301 28.9402 3.2504
